PathFileType	4	(X/Y/Z)	./resultDataOpenSim/trcMotMarkerGrf/sub06/qtm-13-04.trc
DataRate	CameraRate	NumFrames	NumMarkers	Units	OrigDataRate	OrigDataStartFrame	OrigNumFrames
250.000000	250.000000	9	24	m	250.000000	334	533
Frame#	Time	L.Toe.Tip			R.Toe.Tip			L.Ankle.Lat			R.Ankle.Lat			L.Ankle.Med			R.Ankle.Med			L.Heel			R.Heel			L.Knee.Lat			R.Knee.Lat			L.Knee.Med			R.Knee.Med			L.Thigh.Upper			R.Thigh.Upper			L.ASIS			R.ASIS			V.Sacral			L.Acromium			R.Acromium			C7			L.Elbow			R.Elbow			L.Wrist.Lat			R.Wrist.Lat
		X1	Y1	Z1	X2	Y2	Z2	X3	Y3	Z3	X4	Y4	Z4	X5	Y5	Z5	X6	Y6	Z6	X7	Y7	Z7	X8	Y8	Z8	X9	Y9	Z9	X10	Y10	Z10	X11	Y11	Z11	X12	Y12	Z12	X13	Y13	Z13	X14	Y14	Z14	X15	Y15	Z15	X16	Y16	Z16	X17	Y17	Z17	X18	Y18	Z18	X19	Y19	Z19	X20	Y20	Z20	X21	Y21	Z21	X22	Y22	Z22	X23	Y23	Z23	X24	Y24	Z24

334	1.332	0.34511495	0.099309785	-0.056296159	0.95139676	0.035372659	0.095135099	0.36797488	0.22920935	-0.084904788	0.8146156	0.060192869	0.11816526	0.39197454	0.22875735	-0.0025776384	0.83430683	0.08062403	0.031372632	0.33253665	0.28994195	-0.031080312	0.75958481	0.03872315	0.060338612	0.71677316	0.36445872	-0.12752239	0.88896408	0.43942995	0.1502398	0.71961014	0.35999581	-0.0025599708	0.85026156	0.42761156	0.029853962	0.68115625	0.75444377	-0.12242469	0.7520636	0.79124027	0.21338465	0.7651986	0.80999636	-0.099585588	0.81838396	0.83970405	0.13685098	0.60850569	0.89936626	0.057438281	0.71611305	1.3135054	-0.13615597	0.71921634	1.2824265	0.22687593	0.63780422	1.3339622	0.047260219	0.75883943	0.98596663	-0.19399777	0.60983574	0.98470965	0.2816193	0.98423466	0.89597555	-0.13727099	0.70880184	0.77570845	0.35067315
335	1.336	0.35803796	0.1035193	-0.056157026	0.95133425	0.035365823	0.09524179	0.38052339	0.23348567	-0.08457752	0.81453803	0.060210186	0.11822759	0.40455672	0.2329716	-0.002359008	0.83434383	0.080719795	0.031481762	0.34491476	0.29418057	-0.030890026	0.75955986	0.038835704	0.060319947	0.72939191	0.36671045	-0.12775333	0.89061845	0.4393736	0.15069222	0.73314001	0.36222404	-0.0029724829	0.85227959	0.42811348	0.030114198	0.68745389	0.75661184	-0.12224084	0.75675533	0.79235245	0.21398402	0.77116454	0.8121173	-0.099503691	0.82377469	0.84101598	0.13778005	0.61443402	0.90124379	0.057860189	0.72111297	1.3156569	-0.13595007	0.72520649	1.2843072	0.22701825	0.64347824	1.3358872	0.047698997	0.76247919	0.98816787	-0.19366511	0.61834187	0.98549591	0.28234967	0.98657132	0.89435731	-0.13843023	0.72142943	0.7778974	0.35017943
336	1.34	0.37113133	0.10749081	-0.055937937	0.95127754	0.035359477	0.095340652	0.39313397	0.23754293	-0.084255061	0.81446037	0.060246635	0.1182878	0.41722568	0.23698411	-0.0021611225	0.83436557	0.080822993	0.031591416	0.35730098	0.29812741	-0.030576736	0.75953599	0.038954103	0.060309492	0.74196545	0.3691002	-0.12796167	0.89225015	0.4393546	0.15116684	0.74637848	0.36454458	-0.0032438208	0.85428123	0.42862601	0.030268821	0.69382905	0.75882674	-0.12213094	0.7612673	0.79342387	0.21446504	0.77718983	0.81424933	-0.099368357	0.82917128	0.84236912	0.13881596	0.62035557	0.90312175	0.058171102	0.72609791	1.3178298	-0.1357559	0.73114713	1.2862268	0.22714573	0.64911349	1.3378435	0.048120418	0.7660388	0.9904042	-0.19344428	0.62686413	0.98636597	0.28311708	0.98877689	0.8928048	-0.13965562	0.73409982	0.78026899	0.34965128
337	1.344	0.38438878	0.11121214	-0.055641987	0.9512297	0.03535362	0.095430414	0.40578714	0.24137119	-0.083933869	0.81440175	0.060288005	0.1183502	0.42997717	0.24077952	-0.0019876267	0.83438199	0.080938482	0.031703443	0.36969332	0.3017761	-0.030176581	0.75951689	0.039079858	0.060310153	0.75448435	0.37163038	-0.12816496	0.89381502	0.43935181	0.15162455	0.75925219	0.36694596	-0.003339792	0.8560947	0.42915278	0.03039074	0.70029036	0.76105715	-0.12210332	0.76563193	0.79445433	0.21483146	0.78327634	0.81640031	-0.099173323	0.834547	0.84376553	0.13991602	0.62626439	0.90499399	0.058392278	0.73107927	1.3200187	-0.13556987	0.73704331	1.2881787	0.22726495	0.65471922	1.3398127	0.048520614	0.76949669	0.99266017	-0.19345828	0.6353703	0.98730759	0.28391815	0.99086044	0.89131384	-0.14094932	0.74678039	0.78281251	0.34907547
338	1.348	0.39781377	0.11466538	-0.055328819	0.95119332	0.035348549	0.095510893	0.41847402	0.24495779	-0.083616896	0.81437477	0.060322783	0.11841893	0.44282926	0.24434671	-0.0018474631	0.83440224	0.081068275	0.031819333	0.38208705	0.30513433	-0.029762154	0.75950653	0.039214481	0.060320081	0.76694114	0.37430178	-0.12837082	0.89527028	0.43935109	0.15202884	0.77191329	0.36943215	-0.0033163276	0.85767128	0.429687	0.030512549	0.70681894	0.76328068	-0.12215921	0.7698252	0.79543654	0.21504324	0.7894314	0.81857393	-0.098915213	0.83990198	0.84521136	0.14104949	0.63214137	0.90685381	0.058555744	0.73607084	1.3222156	-0.13538394	0.74290003	1.2901578	0.22738055	0.66031367	1.3417646	0.048887803	0.77283874	0.99492144	-0.19378588	0.64381916	0.9882967	0.284725	0.99282348	0.88988469	-0.14231014	0.7594401	0.78550215	0.34844131
339	1.352	0.41140931	0.11783475	-0.05506737	0.95116857	0.03534404	0.095580253	0.43119161	0.2482892	-0.083311397	0.81437295	0.060350329	0.11849636	0.45579707	0.24768252	-0.0017449493	0.83442869	0.081215509	0.031938113	0.39445894	0.30821423	-0.029381597	0.7595052	0.039358653	0.060337393	0.77933655	0.37711165	-0.12858031	0.89659463	0.43935562	0.15236556	0.78448456	0.37201334	-0.0032251246	0.85907942	0.43020783	0.030628857	0.71338851	0.76552033	-0.12225305	0.77388869	0.79639274	0.21512611	0.79564659	0.82077146	-0.098599032	0.84525814	0.84671586	0.14220321	0.63797435	0.90869288	0.058670745	0.74108416	1.3244125	-0.13519198	0.74871895	1.2921593	0.22749016	0.66590925	1.3436781	0.049213923	0.77610352	0.99719207	-0.19424082	0.65218591	0.98931441	0.28551115	0.99466298	0.88852	-0.14373568	0.7720502	0.78831007	0.3477374
340	1.356	0.42517646	0.12071479	-0.054896527	0.95115184	0.035340242	0.095634989	0.44393291	0.25135699	-0.083025941	0.81436742	0.060384172	0.11858558	0.4688328	0.2507832	-0.0016529044	0.83445682	0.08138377	0.032054517	0.40678423	0.31101592	-0.029030349	0.75950744	0.039514103	0.060363071	0.79167422	0.38005227	-0.12878595	0.89778249	0.43938338	0.15263714	0.79699809	0.37469617	-0.003091122	0.86037847	0.43069905	0.03074019	0.71998795	0.76784528	-0.1222792	0.77798285	0.79738398	0.21521097	0.80188743	0.82299465	-0.098241184	0.85062878	0.8482838	0.14336411	0.64376256	0.91050198	0.058725463	0.7461287	1.3266035	-0.13499412	0.75450057	1.2941785	0.22758959	0.67150325	1.3455565	0.049503678	0.77939573	0.99949697	-0.19434975	0.66048542	0.99035909	0.28626924	0.99638493	0.88722095	-0.14522447	0.78459166	0.7912291	0.34695628
341	1.36	0.43911467	0.12330844	-0.05482349	0.95113825	0.035339221	0.095671224	0.45668322	0.25415899	-0.082770765	0.81432339	0.060444151	0.1186909	0.48183377	0.25363309	-0.0015237427	0.83448107	0.081573278	0.032160112	0.41905591	0.31351233	-0.028651954	0.75950565	0.039684873	0.060397917	0.80395348	0.38310803	-0.12896907	0.89884117	0.4394546	0.15285276	0.80944287	0.37748592	-0.0029249817	0.86160941	0.43115501	0.030844241	0.72662035	0.77029247	-0.12216814	0.78225164	0.79846016	0.21540605	0.80812688	0.82524747	-0.097857041	0.85599926	0.84990986	0.14450625	0.64952275	0.91227163	0.058702251	0.75121203	1.3287827	-0.13479307	0.76024841	1.2962122	0.22768046	0.67708497	1.3474198	0.049771232	0.78280639	1.0018501	-0.19377771	0.66875136	0.9914383	0.28700645	0.99801281	0.88598515	-0.14677202	0.7970675	0.79427516	0.34610658
342	1.364	0.45321802	0.12561734	-0.054840981	0.95112646	0.035344819	0.095684986	0.46943382	0.25668932	-0.082553071	0.81423486	0.060541524	0.11880833	0.49475599	0.25621232	-0.0013514449	0.83450172	0.081780037	0.032247105	0.43128398	0.31566942	-0.028211105	0.75949441	0.039875337	0.060440754	0.81616948	0.38626068	-0.12911295	0.89980044	0.43957701	0.15302064	0.82181195	0.38039085	-0.0027342515	0.86285459	0.43156846	0.030902922	0.73328371	0.77279851	-0.12199346	0.78669764	0.79961438	0.21569674	0.81437716	0.82753719	-0.09744688	0.86134558	0.8515821	0.14560142	0.65528211	0.9139924	0.058593141	0.75633786	1.3309423	-0.13458765	0.7659683	1.298258	0.22776807	0.68264743	1.3492856	0.050029662	0.78630714	1.004225	-0.19274	0.67700391	0.99255492	0.28773089	0.99957411	0.88480649	-0.14837068	0.80950033	0.79746784	0.34521426
